<?xml version="1.0" encoding="UTF-8"?>
<svg id="Camada_1" data-name="Camada 1" xmlns="http://www.w3.org/2000/svg" xmlns:xlink="http://www.w3.org/1999/xlink" viewBox="0 0 1024 1024">
  <defs>
    <style>
      .cls-1 {
        fill: #fff;
      }

      .cls-2 {
        fill: url(#Gradiente_sem_nome_25);
      }
    </style>
    <linearGradient id="Gradiente_sem_nome_25" data-name="Gradiente sem nome 25" x1="48.74" y1="975.26" x2="975.26" y2="48.74" gradientUnits="userSpaceOnUse">
      <stop offset="0" stop-color="#ffa641"/>
      <stop offset="1" stop-color="#ff5938"/>
    </linearGradient>
  </defs>
  <rect class="cls-2" width="1024" height="1024" rx="166.43" ry="166.43"/>
  <g>
    <path class="cls-1" d="M795.28,328.36c-.25,1.7-7.17,1.97-7.83.36-31.28-76.64-91.73-99.51-92.77-102.08-.66-1.6-.88-7.02,1.64-7.11l67.9-2.61c25.18-.97,38.63-20.38,59.08-36.04,9.95-7.62,29.81-16.76,38.18-7.87,9.48,10.07-4.12,30.01-13.06,37.95l-25.11,22.3c-10.33,9.17-17.2,20.55-19.21,34.41l-8.82,60.7Z"/>
    <g>
      <path class="cls-1" d="M471.86,535.76l-72.3,73.1-70.28,71.05-71.05,71.76c-20.76,20.97-40.31,41.63-62.56,62.06l25.8-199.57c-28.65-86.78-5.83-180.63,56.28-246.07,91.48-96.39,242.2-103.84,342.12-16.26l82.74-51.86c-4.61,8.75-12.7,15.12-20.04,22.55l-69.91,70.84-70.32,71.12-70.49,71.27ZM545.28,399.31c-30.34-19.91-62.8-26.87-96.19-25.34-96.01,4.39-167.08,89.87-154.46,185.19l250.64-159.85Z"/>
      <path class="cls-1" d="M452.09,702.72c45.2.74,85.88-14.91,118.34-44.71,54.21-51.57,66.92-132.57,31.28-199.08l47.71-76.6c81.46,98.32,72.75,240.81-16.39,329.86-59.3,59.25-144.53,85.98-228.07,67.54l47.14-77.02Z"/>
    </g>
  </g>
</svg>